<mxfile host="app.diagrams.net" modified="2024-05-17T11:55:17.299Z" agent="Mozilla/5.0 (Windows NT 10.0; Win64; x64; rv:126.0) Gecko/20100101 Firefox/126.0" etag="_XY3kZ7TPdJTvh3M3h3w" version="24.4.0" type="device">
  <diagram name="ページ1" id="6O8cq4Rfigk1k-ii5kAo">
    <mxGraphModel dx="2606" dy="701" grid="1" gridSize="10" guides="1" tooltips="1" connect="1" arrows="1" fold="1" page="1" pageScale="1" pageWidth="827" pageHeight="1169" math="0" shadow="0">
      <root>
        <mxCell id="0" />
        <object label="ネットワーク" id="1">
          <mxCell style="locked=1;" parent="0" />
        </object>
        <mxCell id="nmcxP7l3HHxIJU_-N-T5-9" value="" style="endArrow=oval;html=1;rounded=0;startArrow=oval;startFill=1;endFill=1;strokeWidth=4;fillColor=#a20025;strokeColor=#6F0000;" parent="1" edge="1">
          <mxGeometry width="50" height="50" relative="1" as="geometry">
            <mxPoint x="-694" y="35" as="sourcePoint" />
            <mxPoint x="626" y="35" as="targetPoint" />
          </mxGeometry>
        </mxCell>
        <mxCell id="nmcxP7l3HHxIJU_-N-T5-10" value="10.0.0.0/24" style="text;html=1;align=center;verticalAlign=middle;resizable=0;points=[];autosize=1;strokeColor=none;fillColor=none;" parent="1" vertex="1">
          <mxGeometry x="-784" y="20" width="80" height="30" as="geometry" />
        </mxCell>
        <mxCell id="nmcxP7l3HHxIJU_-N-T5-11" value="" style="endArrow=oval;html=1;rounded=0;startArrow=oval;startFill=1;endFill=1;strokeWidth=4;fillColor=#a20025;strokeColor=#1C6EFF;" parent="1" edge="1">
          <mxGeometry width="50" height="50" relative="1" as="geometry">
            <mxPoint x="-694" y="109.5" as="sourcePoint" />
            <mxPoint x="626" y="109.5" as="targetPoint" />
          </mxGeometry>
        </mxCell>
        <mxCell id="nmcxP7l3HHxIJU_-N-T5-12" value="172.16.0.0/24" style="text;html=1;align=center;verticalAlign=middle;resizable=0;points=[];autosize=1;strokeColor=none;fillColor=none;" parent="1" vertex="1">
          <mxGeometry x="-794" y="95" width="100" height="30" as="geometry" />
        </mxCell>
        <mxCell id="nmcxP7l3HHxIJU_-N-T5-13" value="" style="endArrow=none;html=1;rounded=0;startArrow=none;startFill=0;endFill=0;strokeWidth=4;fillColor=#a20025;strokeColor=#1C6EFF;jumpStyle=arc;" parent="1" edge="1">
          <mxGeometry width="50" height="50" relative="1" as="geometry">
            <mxPoint x="-562" y="110" as="sourcePoint" />
            <mxPoint x="-562" y="190" as="targetPoint" />
          </mxGeometry>
        </mxCell>
        <mxCell id="nmcxP7l3HHxIJU_-N-T5-14" value="" style="endArrow=none;html=1;rounded=0;startArrow=none;startFill=0;endFill=0;strokeWidth=4;fillColor=#a20025;strokeColor=#1C6EFF;jumpStyle=arc;" parent="1" edge="1">
          <mxGeometry width="50" height="50" relative="1" as="geometry">
            <mxPoint x="-237" y="110" as="sourcePoint" />
            <mxPoint x="-237.5" y="180" as="targetPoint" />
          </mxGeometry>
        </mxCell>
        <mxCell id="nmcxP7l3HHxIJU_-N-T5-15" value="" style="endArrow=none;html=1;rounded=0;startArrow=none;startFill=0;endFill=0;strokeWidth=4;fillColor=#a20025;strokeColor=#6F0000;jumpStyle=arc;" parent="1" edge="1">
          <mxGeometry width="50" height="50" relative="1" as="geometry">
            <mxPoint x="434.5" y="36" as="sourcePoint" />
            <mxPoint x="434.5" y="190" as="targetPoint" />
          </mxGeometry>
        </mxCell>
        <mxCell id="nmcxP7l3HHxIJU_-N-T5-16" value="" style="endArrow=none;html=1;rounded=0;startArrow=none;startFill=0;endFill=0;strokeWidth=4;fillColor=#a20025;strokeColor=#6F0000;jumpStyle=arc;" parent="1" edge="1">
          <mxGeometry width="50" height="50" relative="1" as="geometry">
            <mxPoint x="-443" y="34" as="sourcePoint" />
            <mxPoint x="-443" y="190" as="targetPoint" />
          </mxGeometry>
        </mxCell>
        <object label="マシン" id="ExSx5SIZApUU_Iw7rpWn-6">
          <mxCell style="locked=1;" parent="0" />
        </object>
        <mxCell id="nmcxP7l3HHxIJU_-N-T5-17" value="" style="rounded=1;whiteSpace=wrap;html=1;fillColor=#dae8fc;strokeColor=#6c8ebf;" parent="ExSx5SIZApUU_Iw7rpWn-6" vertex="1">
          <mxGeometry x="-655" y="190" width="1240" height="530" as="geometry" />
        </mxCell>
        <mxCell id="nmcxP7l3HHxIJU_-N-T5-18" value="eth1" style="rounded=0;whiteSpace=wrap;html=1;fillColor=#e3c800;fontColor=#000000;strokeColor=#B09500;" parent="ExSx5SIZApUU_Iw7rpWn-6" vertex="1">
          <mxGeometry x="-482" y="180" width="80" height="20" as="geometry" />
        </mxCell>
        <mxCell id="nmcxP7l3HHxIJU_-N-T5-19" value="eth0" style="rounded=0;whiteSpace=wrap;html=1;fillColor=#e3c800;fontColor=#000000;strokeColor=#B09500;" parent="ExSx5SIZApUU_Iw7rpWn-6" vertex="1">
          <mxGeometry x="-602" y="180" width="80" height="20" as="geometry" />
        </mxCell>
        <mxCell id="nmcxP7l3HHxIJU_-N-T5-20" value="172.16.0.11" style="text;html=1;align=center;verticalAlign=middle;resizable=0;points=[];autosize=1;strokeColor=none;fillColor=none;" parent="ExSx5SIZApUU_Iw7rpWn-6" vertex="1">
          <mxGeometry x="-652" y="150" width="90" height="30" as="geometry" />
        </mxCell>
        <mxCell id="nmcxP7l3HHxIJU_-N-T5-21" value="eth2" style="rounded=0;whiteSpace=wrap;html=1;fillColor=#e3c800;fontColor=#000000;strokeColor=#B09500;" parent="ExSx5SIZApUU_Iw7rpWn-6" vertex="1">
          <mxGeometry x="-277.5" y="180" width="80" height="20" as="geometry" />
        </mxCell>
        <mxCell id="nmcxP7l3HHxIJU_-N-T5-22" value="&lt;div&gt;eth3&lt;/div&gt;" style="rounded=0;whiteSpace=wrap;html=1;fillColor=#e3c800;fontColor=#000000;strokeColor=#B09500;" parent="ExSx5SIZApUU_Iw7rpWn-6" vertex="1">
          <mxGeometry x="395.5" y="180" width="80" height="20" as="geometry" />
        </mxCell>
        <mxCell id="nmcxP7l3HHxIJU_-N-T5-23" value="10.0.0.11" style="text;html=1;align=center;verticalAlign=middle;resizable=0;points=[];autosize=1;strokeColor=none;fillColor=none;" parent="ExSx5SIZApUU_Iw7rpWn-6" vertex="1">
          <mxGeometry x="-512" y="150" width="70" height="30" as="geometry" />
        </mxCell>
        <mxCell id="nmcxP7l3HHxIJU_-N-T5-24" value="&lt;font style=&quot;font-size: 17px;&quot;&gt;Controller Node&lt;/font&gt;" style="text;html=1;align=center;verticalAlign=middle;resizable=0;points=[];autosize=1;strokeColor=none;fillColor=none;" parent="ExSx5SIZApUU_Iw7rpWn-6" vertex="1">
          <mxGeometry x="400" y="680" width="140" height="30" as="geometry" />
        </mxCell>
        <mxCell id="nmcxP7l3HHxIJU_-N-T5-25" value="br-provider" style="rounded=0;whiteSpace=wrap;html=1;fillColor=#B39D00;fontColor=#000000;strokeColor=#B09500;" parent="ExSx5SIZApUU_Iw7rpWn-6" vertex="1">
          <mxGeometry x="-350" y="224" width="225" height="80" as="geometry" />
        </mxCell>
        <mxCell id="nmcxP7l3HHxIJU_-N-T5-26" value="phy-br-provider" style="rounded=0;whiteSpace=wrap;html=1;fillColor=#e3c800;fontColor=#000000;strokeColor=#B09500;" parent="ExSx5SIZApUU_Iw7rpWn-6" vertex="1">
          <mxGeometry x="-292.5" y="337" width="110" height="20" as="geometry" />
        </mxCell>
        <mxCell id="nmcxP7l3HHxIJU_-N-T5-27" value="" style="endArrow=none;html=1;rounded=0;startArrow=none;startFill=0;endFill=0;strokeWidth=4;fillColor=#a20025;strokeColor=#1C6EFF;jumpStyle=arc;entryX=0.5;entryY=0;entryDx=0;entryDy=0;exitX=0.5;exitY=1;exitDx=0;exitDy=0;" parent="ExSx5SIZApUU_Iw7rpWn-6" source="nmcxP7l3HHxIJU_-N-T5-21" target="nmcxP7l3HHxIJU_-N-T5-30" edge="1">
          <mxGeometry width="50" height="50" relative="1" as="geometry">
            <mxPoint x="-226.5" y="100" as="sourcePoint" />
            <mxPoint x="-226.5" y="180" as="targetPoint" />
          </mxGeometry>
        </mxCell>
        <mxCell id="nmcxP7l3HHxIJU_-N-T5-28" value="" style="endArrow=none;html=1;rounded=0;startArrow=none;startFill=0;endFill=0;strokeWidth=4;fillColor=#a20025;strokeColor=#1C6EFF;jumpStyle=arc;entryX=0.5;entryY=0;entryDx=0;entryDy=0;exitX=0.5;exitY=1;exitDx=0;exitDy=0;" parent="ExSx5SIZApUU_Iw7rpWn-6" source="nmcxP7l3HHxIJU_-N-T5-31" target="nmcxP7l3HHxIJU_-N-T5-26" edge="1">
          <mxGeometry width="50" height="50" relative="1" as="geometry">
            <mxPoint x="-227.5" y="184" as="sourcePoint" />
            <mxPoint x="-227.5" y="209" as="targetPoint" />
          </mxGeometry>
        </mxCell>
        <mxCell id="nmcxP7l3HHxIJU_-N-T5-30" value="&lt;font color=&quot;#ffffff&quot;&gt;eth2&lt;/font&gt;" style="rounded=0;whiteSpace=wrap;html=1;fillColor=#6E6000;fontColor=#000000;strokeColor=#B09500;" parent="ExSx5SIZApUU_Iw7rpWn-6" vertex="1">
          <mxGeometry x="-277.5" y="224" width="80" height="20" as="geometry" />
        </mxCell>
        <mxCell id="nmcxP7l3HHxIJU_-N-T5-31" value="&lt;font color=&quot;#ffffff&quot;&gt;phy-br-provider&lt;/font&gt;" style="rounded=0;whiteSpace=wrap;html=1;fillColor=#6E6000;fontColor=#000000;strokeColor=#B09500;" parent="ExSx5SIZApUU_Iw7rpWn-6" vertex="1">
          <mxGeometry x="-298.75" y="284" width="122.5" height="20" as="geometry" />
        </mxCell>
        <mxCell id="nmcxP7l3HHxIJU_-N-T5-33" value="br-mgmt" style="rounded=0;whiteSpace=wrap;html=1;fillColor=#B39D00;fontColor=#000000;strokeColor=#B09500;" parent="ExSx5SIZApUU_Iw7rpWn-6" vertex="1">
          <mxGeometry x="323" y="224" width="225" height="80" as="geometry" />
        </mxCell>
        <mxCell id="nmcxP7l3HHxIJU_-N-T5-34" value="phy-br-mgmt" style="rounded=0;whiteSpace=wrap;html=1;fillColor=#e3c800;fontColor=#000000;strokeColor=#B09500;" parent="ExSx5SIZApUU_Iw7rpWn-6" vertex="1">
          <mxGeometry x="380.5" y="337" width="110" height="20" as="geometry" />
        </mxCell>
        <mxCell id="nmcxP7l3HHxIJU_-N-T5-35" value="" style="endArrow=none;html=1;rounded=0;startArrow=none;startFill=0;endFill=0;strokeWidth=4;fillColor=#a20025;strokeColor=#6F0000;jumpStyle=arc;entryX=0.5;entryY=0;entryDx=0;entryDy=0;exitX=0.5;exitY=1;exitDx=0;exitDy=0;" parent="ExSx5SIZApUU_Iw7rpWn-6" source="nmcxP7l3HHxIJU_-N-T5-22" target="nmcxP7l3HHxIJU_-N-T5-37" edge="1">
          <mxGeometry width="50" height="50" relative="1" as="geometry">
            <mxPoint x="435.5" y="190" as="sourcePoint" />
            <mxPoint x="446.5" y="180" as="targetPoint" />
          </mxGeometry>
        </mxCell>
        <mxCell id="nmcxP7l3HHxIJU_-N-T5-36" value="" style="endArrow=none;html=1;rounded=0;startArrow=none;startFill=0;endFill=0;strokeWidth=4;fillColor=#a20025;strokeColor=#6F0000;jumpStyle=arc;entryX=0.5;entryY=0;entryDx=0;entryDy=0;exitX=0.5;exitY=1;exitDx=0;exitDy=0;" parent="ExSx5SIZApUU_Iw7rpWn-6" source="nmcxP7l3HHxIJU_-N-T5-38" target="nmcxP7l3HHxIJU_-N-T5-34" edge="1">
          <mxGeometry width="50" height="50" relative="1" as="geometry">
            <mxPoint x="445.5" y="184" as="sourcePoint" />
            <mxPoint x="445.5" y="209" as="targetPoint" />
          </mxGeometry>
        </mxCell>
        <mxCell id="nmcxP7l3HHxIJU_-N-T5-37" value="&lt;font color=&quot;#ffffff&quot;&gt;eth3&lt;/font&gt;" style="rounded=0;whiteSpace=wrap;html=1;fillColor=#6E6000;fontColor=#000000;strokeColor=#B09500;" parent="ExSx5SIZApUU_Iw7rpWn-6" vertex="1">
          <mxGeometry x="395.5" y="224" width="80" height="20" as="geometry" />
        </mxCell>
        <mxCell id="nmcxP7l3HHxIJU_-N-T5-38" value="&lt;font color=&quot;#ffffff&quot;&gt;phy-br-mgmt&lt;/font&gt;" style="rounded=0;whiteSpace=wrap;html=1;fillColor=#6E6000;fontColor=#000000;strokeColor=#B09500;" parent="ExSx5SIZApUU_Iw7rpWn-6" vertex="1">
          <mxGeometry x="374.25" y="284" width="122.5" height="20" as="geometry" />
        </mxCell>
        <mxCell id="nmcxP7l3HHxIJU_-N-T5-39" value="br-int" style="rounded=0;whiteSpace=wrap;html=1;fillColor=#B39D00;fontColor=#000000;strokeColor=#B09500;" parent="ExSx5SIZApUU_Iw7rpWn-6" vertex="1">
          <mxGeometry x="-57.5" y="389" width="290" height="80" as="geometry" />
        </mxCell>
        <mxCell id="nmcxP7l3HHxIJU_-N-T5-40" value="&lt;font color=&quot;#ffffff&quot;&gt;int-br-provider&lt;/font&gt;" style="rounded=0;whiteSpace=wrap;html=1;fillColor=#6E6000;fontColor=#000000;strokeColor=#B09500;" parent="ExSx5SIZApUU_Iw7rpWn-6" vertex="1">
          <mxGeometry x="-47" y="389" width="122.5" height="20" as="geometry" />
        </mxCell>
        <mxCell id="nmcxP7l3HHxIJU_-N-T5-41" value="&lt;font color=&quot;#ffffff&quot;&gt;int-br-mgmt&lt;/font&gt;" style="rounded=0;whiteSpace=wrap;html=1;fillColor=#6E6000;fontColor=#000000;strokeColor=#B09500;" parent="ExSx5SIZApUU_Iw7rpWn-6" vertex="1">
          <mxGeometry x="100.5" y="389" width="122.5" height="20" as="geometry" />
        </mxCell>
        <mxCell id="nmcxP7l3HHxIJU_-N-T5-42" value="int-br-provider" style="rounded=0;whiteSpace=wrap;html=1;fillColor=#e3c800;fontColor=#000000;strokeColor=#B09500;" parent="ExSx5SIZApUU_Iw7rpWn-6" vertex="1">
          <mxGeometry x="-47" y="337" width="122.5" height="20" as="geometry" />
        </mxCell>
        <mxCell id="nmcxP7l3HHxIJU_-N-T5-43" value="int-br-mgmt" style="rounded=0;whiteSpace=wrap;html=1;fillColor=#e3c800;fontColor=#000000;strokeColor=#B09500;" parent="ExSx5SIZApUU_Iw7rpWn-6" vertex="1">
          <mxGeometry x="100.5" y="337" width="122.5" height="20" as="geometry" />
        </mxCell>
        <mxCell id="nmcxP7l3HHxIJU_-N-T5-44" value="" style="endArrow=none;html=1;rounded=0;startArrow=none;startFill=0;endFill=0;strokeWidth=4;fillColor=#a20025;strokeColor=#1C6EFF;jumpStyle=arc;entryX=0;entryY=0.5;entryDx=0;entryDy=0;exitX=1;exitY=0.5;exitDx=0;exitDy=0;" parent="ExSx5SIZApUU_Iw7rpWn-6" source="nmcxP7l3HHxIJU_-N-T5-26" target="nmcxP7l3HHxIJU_-N-T5-42" edge="1">
          <mxGeometry width="50" height="50" relative="1" as="geometry">
            <mxPoint x="-227" y="307" as="sourcePoint" />
            <mxPoint x="-227" y="347" as="targetPoint" />
          </mxGeometry>
        </mxCell>
        <mxCell id="nmcxP7l3HHxIJU_-N-T5-45" value="" style="endArrow=none;html=1;rounded=0;startArrow=none;startFill=0;endFill=0;strokeWidth=4;fillColor=#a20025;strokeColor=#FF9933;jumpStyle=arc;exitX=0.5;exitY=1;exitDx=0;exitDy=0;" parent="ExSx5SIZApUU_Iw7rpWn-6" source="PTYmkBVkSRzFn1gX9XiX-7" edge="1">
          <mxGeometry width="50" height="50" relative="1" as="geometry">
            <mxPoint x="-172" y="380" as="sourcePoint" />
            <mxPoint x="161" y="530" as="targetPoint" />
          </mxGeometry>
        </mxCell>
        <mxCell id="nmcxP7l3HHxIJU_-N-T5-46" value="" style="endArrow=none;html=1;rounded=0;startArrow=none;startFill=0;endFill=0;strokeWidth=4;fillColor=#a20025;strokeColor=#6F0000;jumpStyle=arc;entryX=1;entryY=0.5;entryDx=0;entryDy=0;exitX=0;exitY=0.5;exitDx=0;exitDy=0;" parent="ExSx5SIZApUU_Iw7rpWn-6" source="nmcxP7l3HHxIJU_-N-T5-34" target="nmcxP7l3HHxIJU_-N-T5-43" edge="1">
          <mxGeometry width="50" height="50" relative="1" as="geometry">
            <mxPoint x="446" y="307" as="sourcePoint" />
            <mxPoint x="446" y="347" as="targetPoint" />
          </mxGeometry>
        </mxCell>
        <mxCell id="nmcxP7l3HHxIJU_-N-T5-47" value="" style="endArrow=none;html=1;rounded=0;startArrow=none;startFill=0;endFill=0;strokeWidth=4;fillColor=#a20025;strokeColor=#6F0000;jumpStyle=arc;entryX=0.5;entryY=0;entryDx=0;entryDy=0;exitX=0.5;exitY=1;exitDx=0;exitDy=0;" parent="ExSx5SIZApUU_Iw7rpWn-6" source="nmcxP7l3HHxIJU_-N-T5-43" target="nmcxP7l3HHxIJU_-N-T5-41" edge="1">
          <mxGeometry width="50" height="50" relative="1" as="geometry">
            <mxPoint x="391" y="380" as="sourcePoint" />
            <mxPoint x="233" y="380" as="targetPoint" />
          </mxGeometry>
        </mxCell>
        <mxCell id="PTYmkBVkSRzFn1gX9XiX-7" value="&lt;font color=&quot;#ffffff&quot;&gt;tap2dac2cf0-61&lt;/font&gt;" style="rounded=0;whiteSpace=wrap;html=1;fillColor=#6E6000;fontColor=#000000;strokeColor=#B09500;" parent="ExSx5SIZApUU_Iw7rpWn-6" vertex="1">
          <mxGeometry x="99.25" y="449" width="122.5" height="20" as="geometry" />
        </mxCell>
        <mxCell id="meuoz8Ci3vPXTj3wE5e8-3" value="" style="edgeStyle=orthogonalEdgeStyle;rounded=0;orthogonalLoop=1;jettySize=auto;html=1;" edge="1" parent="ExSx5SIZApUU_Iw7rpWn-6" source="PTYmkBVkSRzFn1gX9XiX-8" target="PTYmkBVkSRzFn1gX9XiX-6">
          <mxGeometry relative="1" as="geometry" />
        </mxCell>
        <mxCell id="PTYmkBVkSRzFn1gX9XiX-8" value="tag 3" style="text;html=1;align=center;verticalAlign=middle;resizable=0;points=[];autosize=1;strokeColor=none;fillColor=none;" parent="ExSx5SIZApUU_Iw7rpWn-6" vertex="1">
          <mxGeometry x="163" y="489" width="50" height="30" as="geometry" />
        </mxCell>
        <mxCell id="PTYmkBVkSRzFn1gX9XiX-9" value="" style="endArrow=none;html=1;rounded=0;startArrow=none;startFill=0;endFill=0;strokeWidth=4;fillColor=#a20025;strokeColor=#1C6EFF;jumpStyle=arc;entryX=0.5;entryY=0;entryDx=0;entryDy=0;exitX=0.5;exitY=1;exitDx=0;exitDy=0;" parent="ExSx5SIZApUU_Iw7rpWn-6" source="nmcxP7l3HHxIJU_-N-T5-42" target="nmcxP7l3HHxIJU_-N-T5-40" edge="1">
          <mxGeometry width="50" height="50" relative="1" as="geometry">
            <mxPoint x="-227" y="330" as="sourcePoint" />
            <mxPoint x="-227" y="370" as="targetPoint" />
          </mxGeometry>
        </mxCell>
        <mxCell id="meuoz8Ci3vPXTj3wE5e8-4" value="br-tun" style="rounded=0;whiteSpace=wrap;html=1;fillColor=#B39D00;fontColor=#000000;strokeColor=#B09500;" vertex="1" parent="ExSx5SIZApUU_Iw7rpWn-6">
          <mxGeometry x="-610" y="316" width="227" height="80" as="geometry" />
        </mxCell>
        <mxCell id="meuoz8Ci3vPXTj3wE5e8-5" value="&lt;font color=&quot;#ffffff&quot;&gt;patch-int&lt;/font&gt;" style="rounded=0;whiteSpace=wrap;html=1;fillColor=#6E6000;fontColor=#000000;strokeColor=#B09500;" vertex="1" parent="ExSx5SIZApUU_Iw7rpWn-6">
          <mxGeometry x="-557.75" y="376" width="122.5" height="20" as="geometry" />
        </mxCell>
        <mxCell id="meuoz8Ci3vPXTj3wE5e8-6" value="&lt;font color=&quot;#ffffff&quot;&gt;patch-tun&lt;/font&gt;" style="rounded=0;whiteSpace=wrap;html=1;fillColor=#6E6000;fontColor=#000000;strokeColor=#B09500;" vertex="1" parent="ExSx5SIZApUU_Iw7rpWn-6">
          <mxGeometry x="-47" y="449" width="122.5" height="20" as="geometry" />
        </mxCell>
        <mxCell id="meuoz8Ci3vPXTj3wE5e8-7" value="patch-tun" style="rounded=0;whiteSpace=wrap;html=1;fillColor=#e3c800;fontColor=#000000;strokeColor=#B09500;" vertex="1" parent="ExSx5SIZApUU_Iw7rpWn-6">
          <mxGeometry x="-47" y="487" width="122.5" height="20" as="geometry" />
        </mxCell>
        <mxCell id="meuoz8Ci3vPXTj3wE5e8-8" value="patch-int" style="rounded=0;whiteSpace=wrap;html=1;fillColor=#e3c800;fontColor=#000000;strokeColor=#B09500;" vertex="1" parent="ExSx5SIZApUU_Iw7rpWn-6">
          <mxGeometry x="-557.75" y="487" width="122.5" height="20" as="geometry" />
        </mxCell>
        <mxCell id="meuoz8Ci3vPXTj3wE5e8-11" value="" style="endArrow=none;html=1;rounded=0;startArrow=none;startFill=0;endFill=0;strokeWidth=4;fillColor=#a20025;strokeColor=#33FF33;jumpStyle=arc;exitX=0.5;exitY=0;exitDx=0;exitDy=0;entryX=0.5;entryY=1;entryDx=0;entryDy=0;" edge="1" parent="ExSx5SIZApUU_Iw7rpWn-6" source="meuoz8Ci3vPXTj3wE5e8-8" target="meuoz8Ci3vPXTj3wE5e8-5">
          <mxGeometry width="50" height="50" relative="1" as="geometry">
            <mxPoint x="24" y="500" as="sourcePoint" />
            <mxPoint x="-160" y="500" as="targetPoint" />
            <Array as="points" />
          </mxGeometry>
        </mxCell>
        <mxCell id="meuoz8Ci3vPXTj3wE5e8-12" value="" style="endArrow=none;html=1;rounded=0;startArrow=none;startFill=0;endFill=0;strokeWidth=4;fillColor=#a20025;strokeColor=#33FF33;jumpStyle=arc;exitX=1;exitY=0.5;exitDx=0;exitDy=0;entryX=0;entryY=0.5;entryDx=0;entryDy=0;" edge="1" parent="ExSx5SIZApUU_Iw7rpWn-6" source="meuoz8Ci3vPXTj3wE5e8-8" target="meuoz8Ci3vPXTj3wE5e8-7">
          <mxGeometry width="50" height="50" relative="1" as="geometry">
            <mxPoint x="-486" y="497" as="sourcePoint" />
            <mxPoint x="-486" y="423" as="targetPoint" />
            <Array as="points" />
          </mxGeometry>
        </mxCell>
        <mxCell id="meuoz8Ci3vPXTj3wE5e8-13" value="&lt;font color=&quot;#ffffff&quot;&gt;vxlan-ac10001f&lt;/font&gt;" style="rounded=0;whiteSpace=wrap;html=1;fillColor=#6E6000;fontColor=#000000;strokeColor=#B09500;" vertex="1" parent="ExSx5SIZApUU_Iw7rpWn-6">
          <mxGeometry x="-557.75" y="316" width="122.5" height="20" as="geometry" />
        </mxCell>
        <mxCell id="meuoz8Ci3vPXTj3wE5e8-14" value="vxlan-ac10001f" style="rounded=0;whiteSpace=wrap;html=1;fillColor=#e3c800;fontColor=#000000;strokeColor=#B09500;" vertex="1" parent="ExSx5SIZApUU_Iw7rpWn-6">
          <mxGeometry x="-557.75" y="260" width="122.5" height="20" as="geometry" />
        </mxCell>
        <mxCell id="meuoz8Ci3vPXTj3wE5e8-15" value="" style="endArrow=none;html=1;rounded=0;startArrow=none;startFill=0;endFill=0;strokeWidth=4;fillColor=#a20025;strokeColor=#1C6EFF;jumpStyle=arc;exitX=0.5;exitY=0;exitDx=0;exitDy=0;entryX=0.5;entryY=1;entryDx=0;entryDy=0;dashed=1;dashPattern=1 1;" edge="1" parent="ExSx5SIZApUU_Iw7rpWn-6" source="meuoz8Ci3vPXTj3wE5e8-13" target="meuoz8Ci3vPXTj3wE5e8-14">
          <mxGeometry width="50" height="50" relative="1" as="geometry">
            <mxPoint x="-486" y="480" as="sourcePoint" />
            <mxPoint x="-486" y="406" as="targetPoint" />
            <Array as="points" />
          </mxGeometry>
        </mxCell>
        <mxCell id="meuoz8Ci3vPXTj3wE5e8-16" value="" style="endArrow=none;html=1;rounded=0;startArrow=none;startFill=0;endFill=0;strokeWidth=4;fillColor=#a20025;strokeColor=#1C6EFF;jumpStyle=arc;entryX=0.5;entryY=0;entryDx=0;entryDy=0;exitX=0.5;exitY=1;exitDx=0;exitDy=0;dashed=1;dashPattern=1 1;" edge="1" parent="ExSx5SIZApUU_Iw7rpWn-6" source="nmcxP7l3HHxIJU_-N-T5-19" target="meuoz8Ci3vPXTj3wE5e8-14">
          <mxGeometry width="50" height="50" relative="1" as="geometry">
            <mxPoint x="-552" y="120" as="sourcePoint" />
            <mxPoint x="-552" y="200" as="targetPoint" />
            <Array as="points">
              <mxPoint x="-562" y="230" />
              <mxPoint x="-496" y="230" />
            </Array>
          </mxGeometry>
        </mxCell>
        <mxCell id="meuoz8Ci3vPXTj3wE5e8-17" value="VXLAN 239" style="text;html=1;align=center;verticalAlign=middle;resizable=0;points=[];autosize=1;strokeColor=none;fillColor=none;" vertex="1" parent="ExSx5SIZApUU_Iw7rpWn-6">
          <mxGeometry x="-637.75" y="230" width="80" height="30" as="geometry" />
        </mxCell>
        <mxCell id="meuoz8Ci3vPXTj3wE5e8-18" value="&lt;div&gt;vxlan 239&lt;br&gt;&lt;/div&gt;&lt;div&gt;&amp;nbsp;&amp;nbsp;↑&amp;nbsp; ↓&lt;br&gt;&lt;/div&gt;&lt;div&gt;tag 3&lt;br&gt;&lt;/div&gt;" style="text;html=1;whiteSpace=wrap;overflow=hidden;rounded=1;fillColor=#ffe6cc;strokeColor=#d79b00;arcSize=12;" vertex="1" parent="ExSx5SIZApUU_Iw7rpWn-6">
          <mxGeometry x="-610" y="300" width="60" height="50" as="geometry" />
        </mxCell>
        <mxCell id="meuoz8Ci3vPXTj3wE5e8-19" value="" style="endArrow=none;html=1;rounded=0;startArrow=none;startFill=0;endFill=0;strokeWidth=4;fillColor=#a20025;strokeColor=#33FF33;jumpStyle=arc;exitX=0.5;exitY=0;exitDx=0;exitDy=0;entryX=0.5;entryY=1;entryDx=0;entryDy=0;" edge="1" parent="ExSx5SIZApUU_Iw7rpWn-6" source="meuoz8Ci3vPXTj3wE5e8-7" target="meuoz8Ci3vPXTj3wE5e8-6">
          <mxGeometry width="50" height="50" relative="1" as="geometry">
            <mxPoint x="-486" y="497" as="sourcePoint" />
            <mxPoint x="-486" y="406" as="targetPoint" />
            <Array as="points" />
          </mxGeometry>
        </mxCell>
        <object label="DHCP名前空間" id="PTYmkBVkSRzFn1gX9XiX-1">
          <mxCell style="locked=1;" parent="0" />
        </object>
        <mxCell id="PTYmkBVkSRzFn1gX9XiX-2" value="" style="rounded=1;whiteSpace=wrap;html=1;fillColor=#b8d2fa;strokeColor=#6c8ebf;align=center;horizontal=1;" parent="PTYmkBVkSRzFn1gX9XiX-1" vertex="1">
          <mxGeometry x="-590" y="520" width="1090" height="140" as="geometry" />
        </mxCell>
        <mxCell id="PTYmkBVkSRzFn1gX9XiX-3" value="&lt;font style=&quot;font-size: 17px;&quot;&gt;qdhcp-6ee86f5e-5d22-4c00-a2cd-6622ec856e17&lt;/font&gt;" style="text;html=1;align=center;verticalAlign=middle;resizable=0;points=[];autosize=1;strokeColor=none;fillColor=none;" parent="PTYmkBVkSRzFn1gX9XiX-1" vertex="1">
          <mxGeometry x="90" y="620" width="390" height="30" as="geometry" />
        </mxCell>
        <mxCell id="PTYmkBVkSRzFn1gX9XiX-4" value="192.168.101.1" style="text;html=1;align=center;verticalAlign=middle;resizable=0;points=[];autosize=1;strokeColor=none;fillColor=none;" parent="PTYmkBVkSRzFn1gX9XiX-1" vertex="1">
          <mxGeometry x="-10" y="520" width="100" height="30" as="geometry" />
        </mxCell>
        <mxCell id="PTYmkBVkSRzFn1gX9XiX-5" value="&lt;font style=&quot;font-size: 17px;&quot;&gt;DHCP agent&lt;/font&gt;" style="rounded=1;whiteSpace=wrap;html=1;fillColor=#3f86f1;strokeColor=#6c8ebf;align=center;horizontal=1;" parent="PTYmkBVkSRzFn1gX9XiX-1" vertex="1">
          <mxGeometry x="-400" y="560" width="730" height="50" as="geometry" />
        </mxCell>
        <mxCell id="PTYmkBVkSRzFn1gX9XiX-6" value="tap2dac2cf0-61" style="rounded=0;whiteSpace=wrap;html=1;fillColor=#e3c800;fontColor=#000000;strokeColor=#B09500;" parent="PTYmkBVkSRzFn1gX9XiX-1" vertex="1">
          <mxGeometry x="98" y="520" width="123" height="20" as="geometry" />
        </mxCell>
      </root>
    </mxGraphModel>
  </diagram>
</mxfile>
